<svg width="156" height="20" viewBox="0 0 156 20" fill="none" xmlns="http://www.w3.org/2000/svg">
<path d="M3.33317 16.6666C2.87484 16.6666 2.48234 16.5033 2.15567 16.1766C1.82901 15.8499 1.66595 15.4577 1.66651 14.9999V4.99992C1.66651 4.54159 1.82984 4.14909 2.15651 3.82242C2.48317 3.49575 2.87539 3.3327 3.33317 3.33325H16.6665C17.1248 3.33325 17.5173 3.49659 17.844 3.82325C18.1707 4.14992 18.3337 4.54214 18.3332 4.99992V14.9999C18.3332 15.4583 18.1698 15.8508 17.8432 16.1774C17.5165 16.5041 17.1243 16.6671 16.6665 16.6666H3.33317ZM9.99984 10.8333L3.33317 6.66659V14.9999H16.6665V6.66659L9.99984 10.8333ZM9.99984 9.16659L16.6665 4.99992H3.33317L9.99984 9.16659ZM3.33317 6.66659V4.99992V14.9999V6.66659Z" fill="#4F8FF0"/>
<path d="M28.924 6.086V4.616H30.576V6.086H28.924ZM27.328 17.202L27.23 16.138L27.846 16.082C28.6393 15.998 29.036 15.522 29.036 14.654V7.668H30.45V14.5C30.45 15.3587 30.2493 15.998 29.848 16.418C29.456 16.8473 28.8167 17.0947 27.93 17.16L27.328 17.202ZM34.6233 14.626C34.1473 14.626 33.7226 14.5327 33.3493 14.346C32.976 14.1593 32.6773 13.9073 32.4533 13.59C32.2386 13.2727 32.1313 12.9133 32.1313 12.512C32.1313 12.008 32.2573 11.6113 32.5093 11.322C32.7706 11.0327 33.1953 10.8227 33.7833 10.692C34.3806 10.5613 35.1833 10.496 36.1913 10.496H36.6673V10.132C36.6673 9.6 36.5553 9.21733 36.3313 8.984C36.1073 8.75067 35.7386 8.634 35.2253 8.634C34.8333 8.634 34.4413 8.69467 34.0493 8.816C33.6573 8.928 33.256 9.11 32.8453 9.362L32.4113 8.368C32.766 8.116 33.2093 7.91533 33.7413 7.766C34.2733 7.61667 34.782 7.542 35.2673 7.542C36.2006 7.542 36.8913 7.766 37.3393 8.214C37.7873 8.65267 38.0113 9.34333 38.0113 10.286V14.5H36.6813V13.366C36.5133 13.758 36.252 14.066 35.8973 14.29C35.5426 14.514 35.118 14.626 34.6233 14.626ZM34.9033 13.618C35.4073 13.618 35.8273 13.4407 36.1633 13.086C36.4993 12.7313 36.6673 12.2833 36.6673 11.742V11.364H36.2053C35.524 11.364 34.9873 11.3967 34.5953 11.462C34.2126 11.5273 33.9373 11.6393 33.7693 11.798C33.6106 11.9473 33.5313 12.1573 33.5313 12.428C33.5313 12.7827 33.6526 13.072 33.8953 13.296C34.138 13.5107 34.474 13.618 34.9033 13.618ZM39.9588 14.5V7.668H41.3308V8.802C41.5642 8.39133 41.8815 8.07867 42.2828 7.864C42.6935 7.64933 43.1508 7.542 43.6548 7.542C45.2695 7.542 46.0768 8.45667 46.0768 10.286V14.5H44.6628V10.37C44.6628 9.782 44.5462 9.35267 44.3128 9.082C44.0888 8.81133 43.7342 8.676 43.2488 8.676C42.6795 8.676 42.2222 8.858 41.8768 9.222C41.5408 9.57667 41.3728 10.048 41.3728 10.636V14.5H39.9588ZM47.8993 6.086V4.616H49.5513V6.086H47.8993ZM48.0253 14.5V7.668H49.4393V14.5H48.0253ZM53.8235 14.626C53.2635 14.626 52.7409 14.556 52.2555 14.416C51.7702 14.2667 51.3642 14.0613 51.0375 13.8L51.4435 12.848C51.7889 13.0907 52.1669 13.2773 52.5775 13.408C52.9975 13.5387 53.4175 13.604 53.8375 13.604C54.3322 13.604 54.7055 13.5153 54.9575 13.338C55.2095 13.1607 55.3355 12.9227 55.3355 12.624C55.3355 12.3813 55.2515 12.1947 55.0835 12.064C54.9155 11.924 54.6635 11.8167 54.3275 11.742L52.9975 11.476C51.8215 11.2333 51.2335 10.6267 51.2335 9.656C51.2335 9.012 51.4902 8.49867 52.0035 8.116C52.5169 7.73333 53.1889 7.542 54.0195 7.542C54.4955 7.542 54.9482 7.612 55.3775 7.752C55.8162 7.892 56.1802 8.102 56.4695 8.382L56.0635 9.334C55.7835 9.09133 55.4615 8.90467 55.0975 8.774C54.7335 8.64333 54.3742 8.578 54.0195 8.578C53.5342 8.578 53.1655 8.67133 52.9135 8.858C52.6615 9.03533 52.5355 9.278 52.5355 9.586C52.5355 10.0527 52.8435 10.3513 53.4595 10.482L54.7895 10.748C55.3962 10.8693 55.8535 11.0747 56.1615 11.364C56.4789 11.6533 56.6375 12.0453 56.6375 12.54C56.6375 13.1933 56.3809 13.7067 55.8675 14.08C55.3542 14.444 54.6729 14.626 53.8235 14.626ZM61.7668 14.626C60.5721 14.626 59.6481 14.2013 58.9948 13.352C58.3508 12.5027 58.0288 11.3127 58.0288 9.782C58.0288 8.09267 58.3928 6.79067 59.1208 5.876C59.8488 4.96133 60.8568 4.504 62.1448 4.504C62.6488 4.504 63.1575 4.60667 63.6708 4.812C64.1841 5.008 64.6135 5.288 64.9588 5.652L64.4548 6.744C64.1188 6.408 63.7455 6.156 63.3348 5.988C62.9335 5.82 62.5275 5.736 62.1168 5.736C61.2488 5.736 60.5815 6.05333 60.1148 6.688C59.6575 7.31333 59.4288 8.25133 59.4288 9.502V10.062C59.6155 9.49267 59.9375 9.04933 60.3948 8.732C60.8615 8.40533 61.3981 8.242 62.0048 8.242C62.5835 8.242 63.0921 8.37733 63.5308 8.648C63.9788 8.91867 64.3288 9.292 64.5808 9.768C64.8328 10.2347 64.9588 10.7713 64.9588 11.378C64.9588 12.0127 64.8235 12.5773 64.5528 13.072C64.2821 13.5573 63.9041 13.94 63.4188 14.22C62.9428 14.4907 62.3921 14.626 61.7668 14.626ZM61.6828 13.45C62.2521 13.45 62.7141 13.2633 63.0688 12.89C63.4235 12.5167 63.6008 12.0313 63.6008 11.434C63.6008 10.8367 63.4235 10.3513 63.0688 9.978C62.7141 9.60467 62.2521 9.418 61.6828 9.418C61.1135 9.418 60.6515 9.60467 60.2968 9.978C59.9421 10.3513 59.7648 10.8367 59.7648 11.434C59.7648 12.0313 59.9421 12.5167 60.2968 12.89C60.6515 13.2633 61.1135 13.45 61.6828 13.45ZM66.8013 14.5V13.422L70.0913 9.894C70.5487 9.39933 70.8753 8.95133 71.0713 8.55C71.2767 8.14867 71.3793 7.74267 71.3793 7.332C71.3793 6.268 70.754 5.736 69.5033 5.736C68.5513 5.736 67.6973 6.09533 66.9413 6.814L66.4233 5.708C66.7967 5.344 67.2727 5.05467 67.8513 4.84C68.43 4.616 69.032 4.504 69.6573 4.504C70.6747 4.504 71.454 4.73733 71.9953 5.204C72.546 5.67067 72.8213 6.338 72.8213 7.206C72.8213 7.794 72.6767 8.368 72.3873 8.928C72.1073 9.488 71.664 10.0853 71.0573 10.72L68.6213 13.282H73.2133V14.5H66.8013ZM80.7959 16.796C79.6105 16.796 78.5652 16.544 77.6599 16.04C76.7639 15.5453 76.0639 14.8407 75.5599 13.926C75.0652 13.0113 74.8179 11.938 74.8179 10.706C74.8179 9.782 74.9672 8.942 75.2659 8.186C75.5645 7.42067 75.9845 6.76267 76.5259 6.212C77.0765 5.66133 77.7299 5.24133 78.4859 4.952C79.2512 4.65333 80.0912 4.504 81.0059 4.504C82.0979 4.504 83.0499 4.71867 83.8619 5.148C84.6832 5.57733 85.3225 6.184 85.7799 6.968C86.2372 7.74267 86.4659 8.65267 86.4659 9.698C86.4659 10.5007 86.3539 11.2007 86.1299 11.798C85.9059 12.3953 85.5932 12.8573 85.1919 13.184C84.7905 13.5107 84.3192 13.674 83.7779 13.674C83.3205 13.674 82.9472 13.5667 82.6579 13.352C82.3685 13.1373 82.1865 12.834 82.1119 12.442C81.8505 12.8527 81.5379 13.1607 81.1739 13.366C80.8192 13.5713 80.4412 13.674 80.0399 13.674C79.3025 13.674 78.7285 13.4453 78.3179 12.988C77.9165 12.5307 77.7159 11.9007 77.7159 11.098C77.7159 10.4167 77.8465 9.81 78.1079 9.278C78.3692 8.73667 78.7285 8.312 79.1859 8.004C79.6432 7.696 80.1612 7.542 80.7399 7.542C81.5985 7.542 82.1772 7.892 82.4759 8.592L82.6439 7.668H83.7359L83.1339 11.182C83.0779 11.4527 83.0499 11.6907 83.0499 11.896C83.0499 12.4933 83.3159 12.792 83.8479 12.792C84.3519 12.792 84.7579 12.5073 85.0659 11.938C85.3739 11.3687 85.5279 10.622 85.5279 9.698C85.5279 8.82067 85.3412 8.06467 84.9679 7.43C84.6039 6.786 84.0812 6.29133 83.3999 5.946C82.7185 5.60067 81.9159 5.428 80.9919 5.428C79.9652 5.428 79.0645 5.64733 78.2899 6.086C77.5245 6.51533 76.9272 7.12667 76.4979 7.92C76.0685 8.71333 75.8539 9.642 75.8539 10.706C75.8539 11.7793 76.0545 12.7033 76.4559 13.478C76.8572 14.2527 77.4265 14.8453 78.1639 15.256C78.9105 15.6667 79.7879 15.872 80.7959 15.872C81.5239 15.872 82.1865 15.76 82.7839 15.536C83.3812 15.3213 83.8852 15.0133 84.2959 14.612L84.7999 15.396C84.3519 15.844 83.7825 16.1893 83.0919 16.432C82.4012 16.6747 81.6359 16.796 80.7959 16.796ZM80.2219 12.736C80.6045 12.736 80.9452 12.6193 81.2439 12.386C81.5519 12.1433 81.7899 11.8167 81.9579 11.406C82.1352 10.986 82.2239 10.51 82.2239 9.978C82.2239 8.98867 81.7805 8.494 80.8939 8.494C80.5019 8.494 80.1519 8.606 79.8439 8.83C79.5452 9.054 79.3072 9.362 79.1299 9.754C78.9619 10.1367 78.8779 10.58 78.8779 11.084C78.8779 11.616 78.9945 12.0267 79.2279 12.316C79.4612 12.596 79.7925 12.736 80.2219 12.736ZM88.9753 17.02L90.1933 14.318L87.3373 7.668H88.8493L90.9493 12.862L93.0773 7.668H94.5333L90.4593 17.02H88.9753ZM97.596 14.626C97.12 14.626 96.6953 14.5327 96.322 14.346C95.9486 14.1593 95.65 13.9073 95.426 13.59C95.2113 13.2727 95.104 12.9133 95.104 12.512C95.104 12.008 95.23 11.6113 95.482 11.322C95.7433 11.0327 96.168 10.8227 96.756 10.692C97.3533 10.5613 98.156 10.496 99.164 10.496H99.64V10.132C99.64 9.6 99.528 9.21733 99.304 8.984C99.08 8.75067 98.7113 8.634 98.198 8.634C97.806 8.634 97.414 8.69467 97.022 8.816C96.63 8.928 96.2286 9.11 95.818 9.362L95.384 8.368C95.7386 8.116 96.182 7.91533 96.714 7.766C97.246 7.61667 97.7546 7.542 98.24 7.542C99.1733 7.542 99.864 7.766 100.312 8.214C100.76 8.65267 100.984 9.34333 100.984 10.286V14.5H99.654V13.366C99.486 13.758 99.2246 14.066 98.87 14.29C98.5153 14.514 98.0906 14.626 97.596 14.626ZM97.876 13.618C98.38 13.618 98.8 13.4407 99.136 13.086C99.472 12.7313 99.64 12.2833 99.64 11.742V11.364H99.178C98.4966 11.364 97.96 11.3967 97.568 11.462C97.1853 11.5273 96.91 11.6393 96.742 11.798C96.5833 11.9473 96.504 12.1573 96.504 12.428C96.504 12.7827 96.6253 13.072 96.868 13.296C97.1106 13.5107 97.4466 13.618 97.876 13.618ZM102.932 14.5V4.63H104.346V8.732C104.579 8.34 104.892 8.046 105.284 7.85C105.685 7.64467 106.133 7.542 106.628 7.542C108.242 7.542 109.05 8.45667 109.05 10.286V14.5H107.636V10.37C107.636 9.782 107.519 9.35267 107.286 9.082C107.062 8.81133 106.707 8.676 106.222 8.676C105.652 8.676 105.195 8.858 104.85 9.222C104.514 9.57667 104.346 10.048 104.346 10.636V14.5H102.932ZM113.966 14.626C113.275 14.626 112.678 14.4813 112.174 14.192C111.67 13.9027 111.278 13.4967 110.998 12.974C110.727 12.442 110.592 11.812 110.592 11.084C110.592 10.356 110.727 9.73067 110.998 9.208C111.278 8.676 111.67 8.26533 112.174 7.976C112.678 7.68667 113.275 7.542 113.966 7.542C114.638 7.542 115.226 7.68667 115.73 7.976C116.234 8.26533 116.626 8.676 116.906 9.208C117.186 9.73067 117.326 10.356 117.326 11.084C117.326 11.812 117.186 12.442 116.906 12.974C116.626 13.4967 116.234 13.9027 115.73 14.192C115.226 14.4813 114.638 14.626 113.966 14.626ZM113.966 13.534C114.545 13.534 115.011 13.324 115.366 12.904C115.721 12.484 115.898 11.8773 115.898 11.084C115.898 10.2907 115.721 9.68867 115.366 9.278C115.011 8.858 114.545 8.648 113.966 8.648C113.378 8.648 112.907 8.858 112.552 9.278C112.197 9.68867 112.02 10.2907 112.02 11.084C112.02 11.8773 112.197 12.484 112.552 12.904C112.907 13.324 113.378 13.534 113.966 13.534ZM121.882 14.626C121.191 14.626 120.594 14.4813 120.09 14.192C119.586 13.9027 119.194 13.4967 118.914 12.974C118.643 12.442 118.508 11.812 118.508 11.084C118.508 10.356 118.643 9.73067 118.914 9.208C119.194 8.676 119.586 8.26533 120.09 7.976C120.594 7.68667 121.191 7.542 121.882 7.542C122.554 7.542 123.142 7.68667 123.646 7.976C124.15 8.26533 124.542 8.676 124.822 9.208C125.102 9.73067 125.242 10.356 125.242 11.084C125.242 11.812 125.102 12.442 124.822 12.974C124.542 13.4967 124.15 13.9027 123.646 14.192C123.142 14.4813 122.554 14.626 121.882 14.626ZM121.882 13.534C122.461 13.534 122.927 13.324 123.282 12.904C123.637 12.484 123.814 11.8773 123.814 11.084C123.814 10.2907 123.637 9.68867 123.282 9.278C122.927 8.858 122.461 8.648 121.882 8.648C121.294 8.648 120.823 8.858 120.468 9.278C120.113 9.68867 119.936 10.2907 119.936 11.084C119.936 11.8773 120.113 12.484 120.468 12.904C120.823 13.324 121.294 13.534 121.882 13.534ZM126.389 14.5V12.834H128.055V14.5H126.389ZM132.615 14.626C131.915 14.626 131.309 14.4813 130.795 14.192C130.291 13.8933 129.899 13.478 129.619 12.946C129.339 12.4047 129.199 11.77 129.199 11.042C129.199 9.95933 129.507 9.10533 130.123 8.48C130.739 7.85467 131.57 7.542 132.615 7.542C133.045 7.542 133.469 7.61667 133.889 7.766C134.309 7.91533 134.655 8.12067 134.925 8.382L134.477 9.376C134.216 9.13333 133.927 8.956 133.609 8.844C133.301 8.72267 133.007 8.662 132.727 8.662C132.065 8.662 131.551 8.872 131.187 9.292C130.833 9.70267 130.655 10.2907 130.655 11.056C130.655 11.8213 130.833 12.4233 131.187 12.862C131.551 13.2913 132.065 13.506 132.727 13.506C133.007 13.506 133.301 13.45 133.609 13.338C133.927 13.2167 134.216 13.0347 134.477 12.792L134.925 13.8C134.655 14.052 134.305 14.2527 133.875 14.402C133.455 14.5513 133.035 14.626 132.615 14.626ZM138.972 14.626C138.281 14.626 137.684 14.4813 137.18 14.192C136.676 13.9027 136.284 13.4967 136.004 12.974C135.733 12.442 135.598 11.812 135.598 11.084C135.598 10.356 135.733 9.73067 136.004 9.208C136.284 8.676 136.676 8.26533 137.18 7.976C137.684 7.68667 138.281 7.542 138.972 7.542C139.644 7.542 140.232 7.68667 140.736 7.976C141.24 8.26533 141.632 8.676 141.912 9.208C142.192 9.73067 142.332 10.356 142.332 11.084C142.332 11.812 142.192 12.442 141.912 12.974C141.632 13.4967 141.24 13.9027 140.736 14.192C140.232 14.4813 139.644 14.626 138.972 14.626ZM138.972 13.534C139.55 13.534 140.017 13.324 140.372 12.904C140.726 12.484 140.904 11.8773 140.904 11.084C140.904 10.2907 140.726 9.68867 140.372 9.278C140.017 8.858 139.55 8.648 138.972 8.648C138.384 8.648 137.912 8.858 137.558 9.278C137.203 9.68867 137.026 10.2907 137.026 11.084C137.026 11.8773 137.203 12.484 137.558 12.904C137.912 13.324 138.384 13.534 138.972 13.534ZM143.948 14.5V7.668H145.32V8.774C145.525 8.382 145.81 8.07867 146.174 7.864C146.538 7.64933 146.962 7.542 147.448 7.542C148.493 7.542 149.17 7.99933 149.478 8.914C149.692 8.48467 150 8.14867 150.402 7.906C150.803 7.66333 151.26 7.542 151.774 7.542C153.304 7.542 154.07 8.45667 154.07 10.286V14.5H152.656V10.356C152.656 9.77733 152.553 9.35267 152.348 9.082C152.152 8.81133 151.825 8.676 151.368 8.676C150.854 8.676 150.448 8.858 150.15 9.222C149.851 9.57667 149.702 10.062 149.702 10.678V14.5H148.288V10.356C148.288 9.77733 148.19 9.35267 147.994 9.082C147.798 8.81133 147.471 8.676 147.014 8.676C146.5 8.676 146.094 8.858 145.796 9.222C145.506 9.57667 145.362 10.062 145.362 10.678V14.5H143.948Z" fill="white"/>
</svg>
