<svg width="162" height="20" viewBox="0 0 162 20" fill="none" xmlns="http://www.w3.org/2000/svg">
<path d="M13.3332 0.833252H6.6665C5.28317 0.833252 4.1665 1.94992 4.1665 3.33325V16.6666C4.1665 18.0499 5.28317 19.1666 6.6665 19.1666H13.3332C14.7165 19.1666 15.8332 18.0499 15.8332 16.6666V3.33325C15.8332 1.94992 14.7165 0.833252 13.3332 0.833252ZM14.1665 14.9999H5.83317V3.33325H14.1665V14.9999ZM11.6665 17.4999H8.33317V16.6666H11.6665V17.4999Z" fill="#4F8FF0"/>
<path d="M31.668 13.94V11H28.784V9.964H31.668V7.108H32.732V9.964H35.616V11H32.732V13.94H31.668ZM37.7945 14.5L42.3165 5.848H37.2625V4.63H43.9405V5.708L39.3905 14.5H37.7945ZM51.6868 17.216C51.0521 16.18 50.5901 15.1347 50.3008 14.08C50.0208 13.016 49.8808 11.9287 49.8808 10.818C49.8808 9.70733 50.0208 8.62467 50.3008 7.57C50.5901 6.506 51.0521 5.456 51.6868 4.42L52.6808 4.812C52.2328 5.86667 51.9061 6.87467 51.7008 7.836C51.4955 8.79733 51.3928 9.79133 51.3928 10.818C51.3928 11.8353 51.4955 12.8293 51.7008 13.8C51.9061 14.7613 52.2328 15.7693 52.6808 16.824L51.6868 17.216ZM56.6559 14.626C56.1426 14.626 55.6293 14.5233 55.1159 14.318C54.6119 14.1127 54.1826 13.8327 53.8279 13.478L54.3319 12.372C54.6773 12.708 55.0506 12.9647 55.4519 13.142C55.8533 13.31 56.2593 13.394 56.6699 13.394C57.5473 13.394 58.2146 13.0813 58.6719 12.456C59.1386 11.8213 59.3719 10.8787 59.3719 9.628V9.054C59.1853 9.62333 58.8586 10.0713 58.3919 10.398C57.9346 10.7247 57.3979 10.888 56.7819 10.888C56.2126 10.888 55.7039 10.7527 55.2559 10.482C54.8079 10.2113 54.4579 9.84267 54.2059 9.376C53.9539 8.9 53.8279 8.35867 53.8279 7.752C53.8279 7.11733 53.9633 6.55733 54.2339 6.072C54.5046 5.57733 54.8779 5.19467 55.3539 4.924C55.8393 4.644 56.3946 4.504 57.0199 4.504C58.2146 4.504 59.1339 4.92867 59.7779 5.778C60.4313 6.62733 60.7579 7.81733 60.7579 9.348C60.7579 11.0373 60.3939 12.3393 59.6659 13.254C58.9473 14.1687 57.9439 14.626 56.6559 14.626ZM57.1179 9.698C57.6873 9.698 58.1493 9.516 58.5039 9.152C58.8586 8.77867 59.0359 8.29333 59.0359 7.696C59.0359 7.09867 58.8586 6.61333 58.5039 6.24C58.1493 5.85733 57.6873 5.666 57.1179 5.666C56.5486 5.666 56.0866 5.85733 55.7319 6.24C55.3773 6.61333 55.1999 7.09867 55.1999 7.696C55.1999 8.29333 55.3773 8.77867 55.7319 9.152C56.0866 9.516 56.5486 9.698 57.1179 9.698ZM62.7545 14.5V13.422L66.0445 9.894C66.5018 9.39933 66.8285 8.95133 67.0245 8.55C67.2298 8.14867 67.3325 7.74267 67.3325 7.332C67.3325 6.268 66.7071 5.736 65.4565 5.736C64.5045 5.736 63.6505 6.09533 62.8945 6.814L62.3765 5.708C62.7498 5.344 63.2258 5.05467 63.8045 4.84C64.3831 4.616 64.9851 4.504 65.6105 4.504C66.6278 4.504 67.4071 4.73733 67.9485 5.204C68.4991 5.67067 68.7745 6.338 68.7745 7.206C68.7745 7.794 68.6298 8.368 68.3405 8.928C68.0605 9.488 67.6171 10.0853 67.0105 10.72L64.5745 13.282H69.1665V14.5H62.7545ZM71.149 14.5V13.422L74.439 9.894C74.8963 9.39933 75.223 8.95133 75.419 8.55C75.6243 8.14867 75.727 7.74267 75.727 7.332C75.727 6.268 75.1017 5.736 73.851 5.736C72.899 5.736 72.045 6.09533 71.289 6.814L70.771 5.708C71.1443 5.344 71.6203 5.05467 72.199 4.84C72.7777 4.616 73.3797 4.504 74.005 4.504C75.0223 4.504 75.8017 4.73733 76.343 5.204C76.8937 5.67067 77.169 6.338 77.169 7.206C77.169 7.794 77.0243 8.368 76.735 8.928C76.455 9.488 76.0117 10.0853 75.405 10.72L72.969 13.282H77.561V14.5H71.149ZM79.8375 17.216L78.8435 16.824C79.2822 15.7507 79.6042 14.7333 79.8095 13.772C80.0148 12.8107 80.1175 11.826 80.1175 10.818C80.1175 9.81 80.0148 8.82533 79.8095 7.864C79.6042 6.90267 79.2822 5.88533 78.8435 4.812L79.8375 4.42C80.4722 5.46533 80.9295 6.52 81.2095 7.584C81.4988 8.63867 81.6435 9.71667 81.6435 10.818C81.6435 11.9287 81.4988 13.016 81.2095 14.08C80.9295 15.1347 80.4722 16.18 79.8375 17.216ZM90.9344 14.626C89.7864 14.626 88.909 14.192 88.3024 13.324C87.705 12.4467 87.4064 11.1913 87.4064 9.558C87.4064 7.89667 87.705 6.64133 88.3024 5.792C88.909 4.93333 89.7864 4.504 90.9344 4.504C92.0917 4.504 92.969 4.93333 93.5664 5.792C94.1637 6.64133 94.4624 7.892 94.4624 9.544C94.4624 11.1867 94.159 12.4467 93.5524 13.324C92.955 14.192 92.0824 14.626 90.9344 14.626ZM90.9344 13.422C91.6437 13.422 92.171 13.1093 92.5164 12.484C92.8617 11.8587 93.0344 10.8787 93.0344 9.544C93.0344 8.20933 92.8617 7.23867 92.5164 6.632C92.1804 6.016 91.653 5.708 90.9344 5.708C90.225 5.708 89.6977 6.016 89.3524 6.632C89.007 7.248 88.8344 8.21867 88.8344 9.544C88.8344 10.8787 89.007 11.8587 89.3524 12.484C89.6977 13.1093 90.225 13.422 90.9344 13.422ZM96.3189 14.5V13.422L99.6089 9.894C100.066 9.39933 100.393 8.95133 100.589 8.55C100.794 8.14867 100.897 7.74267 100.897 7.332C100.897 6.268 100.272 5.736 99.0209 5.736C98.0689 5.736 97.2149 6.09533 96.4589 6.814L95.9409 5.708C96.3142 5.344 96.7902 5.05467 97.3689 4.84C97.9476 4.616 98.5496 4.504 99.1749 4.504C100.192 4.504 100.972 4.73733 101.513 5.204C102.064 5.67067 102.339 6.338 102.339 7.206C102.339 7.794 102.194 8.368 101.905 8.928C101.625 9.488 101.182 10.0853 100.575 10.72L98.1389 13.282H102.731V14.5H96.3189ZM104.713 14.5V13.422L108.003 9.894C108.461 9.39933 108.787 8.95133 108.983 8.55C109.189 8.14867 109.291 7.74267 109.291 7.332C109.291 6.268 108.666 5.736 107.415 5.736C106.463 5.736 105.609 6.09533 104.853 6.814L104.335 5.708C104.709 5.344 105.185 5.05467 105.763 4.84C106.342 4.616 106.944 4.504 107.569 4.504C108.587 4.504 109.366 4.73733 109.907 5.204C110.458 5.67067 110.733 6.338 110.733 7.206C110.733 7.794 110.589 8.368 110.299 8.928C110.019 9.488 109.576 10.0853 108.969 10.72L106.533 13.282H111.125V14.5H104.713ZM112.898 11.336V10.188H116.93V11.336H112.898ZM121.406 14.626C120.893 14.626 120.379 14.5233 119.866 14.318C119.362 14.1127 118.933 13.8327 118.578 13.478L119.082 12.372C119.427 12.708 119.801 12.9647 120.202 13.142C120.603 13.31 121.009 13.394 121.42 13.394C122.297 13.394 122.965 13.0813 123.422 12.456C123.889 11.8213 124.122 10.8787 124.122 9.628V9.054C123.935 9.62333 123.609 10.0713 123.142 10.398C122.685 10.7247 122.148 10.888 121.532 10.888C120.963 10.888 120.454 10.7527 120.006 10.482C119.558 10.2113 119.208 9.84267 118.956 9.376C118.704 8.9 118.578 8.35867 118.578 7.752C118.578 7.11733 118.713 6.55733 118.984 6.072C119.255 5.57733 119.628 5.19467 120.104 4.924C120.589 4.644 121.145 4.504 121.77 4.504C122.965 4.504 123.884 4.92867 124.528 5.778C125.181 6.62733 125.508 7.81733 125.508 9.348C125.508 11.0373 125.144 12.3393 124.416 13.254C123.697 14.1687 122.694 14.626 121.406 14.626ZM121.868 9.698C122.437 9.698 122.899 9.516 123.254 9.152C123.609 8.77867 123.786 8.29333 123.786 7.696C123.786 7.09867 123.609 6.61333 123.254 6.24C122.899 5.85733 122.437 5.666 121.868 5.666C121.299 5.666 120.837 5.85733 120.482 6.24C120.127 6.61333 119.95 7.09867 119.95 7.696C119.95 8.29333 120.127 8.77867 120.482 9.152C120.837 9.516 121.299 9.698 121.868 9.698ZM131.41 14.5V12.498H126.972V11.42L131.662 4.63H132.852V11.28H134.294V12.498H132.852V14.5H131.41ZM131.41 11.28V6.898L128.414 11.28H131.41ZM135.689 11.336V10.188H139.721V11.336H135.689ZM144.911 14.626C143.782 14.626 142.9 14.3833 142.265 13.898C141.64 13.4127 141.327 12.736 141.327 11.868C141.327 11.2613 141.486 10.748 141.803 10.328C142.13 9.89867 142.554 9.60467 143.077 9.446C142.61 9.25 142.242 8.95133 141.971 8.55C141.7 8.13933 141.565 7.668 141.565 7.136C141.565 6.31467 141.868 5.67067 142.475 5.204C143.082 4.73733 143.894 4.504 144.911 4.504C145.938 4.504 146.754 4.73733 147.361 5.204C147.968 5.67067 148.271 6.31467 148.271 7.136C148.271 7.668 148.131 8.13933 147.851 8.55C147.58 8.96067 147.212 9.25933 146.745 9.446C147.277 9.60467 147.702 9.89867 148.019 10.328C148.336 10.748 148.495 11.2613 148.495 11.868C148.495 12.736 148.178 13.4127 147.543 13.898C146.918 14.3833 146.04 14.626 144.911 14.626ZM144.911 8.928C145.536 8.928 146.022 8.78333 146.367 8.494C146.722 8.19533 146.899 7.78933 146.899 7.276C146.899 6.772 146.722 6.37533 146.367 6.086C146.022 5.79667 145.536 5.652 144.911 5.652C144.286 5.652 143.8 5.79667 143.455 6.086C143.11 6.37533 142.937 6.772 142.937 7.276C142.937 7.78933 143.11 8.19533 143.455 8.494C143.8 8.78333 144.286 8.928 144.911 8.928ZM144.911 13.478C146.395 13.478 147.137 12.9087 147.137 11.77C147.137 10.6407 146.395 10.076 144.911 10.076C144.183 10.076 143.628 10.216 143.245 10.496C142.872 10.776 142.685 11.2007 142.685 11.77C142.685 12.9087 143.427 13.478 144.911 13.478ZM150.295 14.5V13.422L153.585 9.894C154.043 9.39933 154.369 8.95133 154.565 8.55C154.771 8.14867 154.873 7.74267 154.873 7.332C154.873 6.268 154.248 5.736 152.997 5.736C152.045 5.736 151.191 6.09533 150.435 6.814L149.917 5.708C150.291 5.344 150.767 5.05467 151.345 4.84C151.924 4.616 152.526 4.504 153.151 4.504C154.169 4.504 154.948 4.73733 155.489 5.204C156.04 5.67067 156.315 6.338 156.315 7.206C156.315 7.794 156.171 8.368 155.881 8.928C155.601 9.488 155.158 10.0853 154.551 10.72L152.115 13.282H156.707V14.5H150.295Z" fill="white"/>
</svg>
